# xmcd CD database file
#
# Track frame offsets:
#	150
#	14360
#	28272
#	42284
#	56594
#	72586
#	83736
#	96716
#	111286
#	130501
#	147127
#	161495
#	174780
#	186823
#	202588
#
# Disc length: 2883 seconds
#
# Revision: 2
# Processed by: cddbd v1.4b41PL1 Copyright (c) Steve Scherf et al.
# Submitted via: Feurio! 1.50.2ß - http://www.feurio.com
#
DISCID=c70b410f
DTITLE=Glykeria-Agathonas and Michalis Genitsaris - Rebetika
DYEAR=1900
DGENRE=
TTITLE0=To Kalokeri Tora
TTITLE1=Ta Dachtilidia
TTITLE2=To Katsaro Skilaki Sou
TTITLE3=Gia Des Me
TTITLE4=Sti Magemeni Arapia
TTITLE5=Se Viepo Anipomoni
TTITLE6=Pende Mages Ston Perea
TTITLE7=Tik Tik Tak
TTITLE8=Orea Thessalonikia
TTITLE9=Pame Gia Tin Voula
TTITLE10=Ta Frigana
TTITLE11=O Bochoris
TTITLE12=Stimeni Mou Tin Ehoun
TTITLE13=Drossati Peloponissos
TTITLE14=Karotseri Trava
EXTD=
EXTT0=
EXTT1=
EXTT2=
EXTT3=
EXTT4=
EXTT5=
EXTT6=
EXTT7=
EXTT8=
EXTT9=
EXTT10=
EXTT11=
EXTT12=
EXTT13=
EXTT14=
PLAYORDER=
